<?xml version="1.0" encoding="UTF-8" standalone="no"?><!-- Generator: Gravit.io --><svg xmlns="http://www.w3.org/2000/svg" xmlns:xlink="http://www.w3.org/1999/xlink" style="isolation:isolate" viewBox="240 45 1545.435 615" width="1545.435pt" height="615pt"><g style="isolation:isolate"><g><clipPath id="_clipPath_T38gbmY2B672ngY3kRSfKofAE6iT8HQz"><circle vector-effect="non-scaling-stroke" cx="390" cy="509.99999999999994" r="149.99999999999994" fill="rgb(255,255,255)"/></clipPath><g clip-path="url(#_clipPath_T38gbmY2B672ngY3kRSfKofAE6iT8HQz)"><radialGradient id="_rgradient_0" fx="0.5" fy="0.5" cx="0.5" cy="0.5" r="0.5" gradientTransform="matrix(547.636,0,0,547.636,116.182,236.182)" gradientUnits="userSpaceOnUse"><stop offset="0%" stop-opacity="1" style="stop-color:rgb(235,235,235)"/><stop offset="55.21739130434783%" stop-opacity="0" style="stop-color:rgb(255,255,255)"/></radialGradient><circle vector-effect="non-scaling-stroke" cx="390.00000000000006" cy="509.99999999999994" r="273.8181818181818" fill="url(#_rgradient_0)"/></g><clipPath id="_clipPath_yOprAjNbfavTvNm9C5C4TNxt69h9y5i7"><circle vector-effect="non-scaling-stroke" cx="390.0000000000003" cy="510.0000000000006" r="119.50000000000006" fill="rgb(255,255,255)"/></clipPath><g clip-path="url(#_clipPath_yOprAjNbfavTvNm9C5C4TNxt69h9y5i7)"><g><rect x="43.75" y="333.25" width="692.5" height="353.5" transform="matrix(1,0,0,1,0,0)" fill="rgb(238,143,92)"/><path d=" M 314.25 617.75 Q 445.75 599.25 462.75 617.75 Q 479.75 636.25 450.75 632.75 L 311.25 632.75 L 314.25 617.75 Z " fill="rgb(255,116,65)"/><path d=" M 322.75 400.25 Q 457.227 453.568 481.25 411.75 Q 505.273 369.932 371.75 363.75 L 322.75 400.25 Z " fill="rgb(255,116,65)"/><path d=" M 266.75 443.25 Q 310.318 479.136 340.75 474.25 C 371.182 469.364 387.545 460.614 411.75 469.25 C 435.955 477.886 436.977 481.023 461.75 477.75 C 486.523 474.477 493.273 446.25 515.75 455.25 C 538.227 464.25 497.205 489.25 461.75 489.25 C 426.295 489.25 404.591 473.955 399.25 483.75 C 393.909 493.545 339.614 492.659 331.25 489.25 C 322.886 485.841 243.727 478.045 255.75 465.75 Q 267.773 453.455 266.75 443.25 Z " fill="rgb(255,116,65)"/><path d=" M 259.75 503.25 Q 300.114 517.455 367.75 508.75 C 435.386 500.045 464.205 494.523 495.25 503.25 C 526.295 511.977 596.614 534.364 522.25 534.25 C 447.886 534.136 456.295 510.182 411.75 518.75 C 367.205 527.318 308.932 538.795 293.75 524.25 Q 278.568 509.705 259.75 518.75 L 259.75 503.25 Z " fill="rgb(255,116,65)"/><path d=" M 271.25 548.25 Q 499.955 572.545 516.25 556.75 Q 532.545 540.955 503.75 594.75 Q 446.364 606.864 412.75 589.25 C 379.136 571.636 364.091 562.273 322.75 577.75 C 281.409 593.227 261.955 605.205 259.75 580.75 Q 257.545 556.295 271.25 548.25 Z " fill="rgb(255,116,65)"/></g></g></g><g><circle vector-effect="non-scaling-stroke" cx="1612.4999999999998" cy="217.93453019252226" r="172.9345301925223" fill="rgb(250,250,250)"/><circle vector-effect="non-scaling-stroke" cx="1546.7972752673575" cy="134.25653171226958" r="15.495925644491308" fill="rgb(237,237,237)"/><circle vector-effect="non-scaling-stroke" cx="1732.7483830012525" cy="239.6288260948101" r="15.495925644491308" fill="rgb(237,237,237)"/><circle vector-effect="non-scaling-stroke" cx="1614.9793481031186" cy="314.0092691883681" r="15.495925644491308" fill="rgb(237,237,237)"/><circle vector-effect="non-scaling-stroke" cx="1676.9630506810838" cy="97.06631016549048" r="15.495925644491308" fill="rgb(237,237,237)"/><circle vector-effect="non-scaling-stroke" cx="1515.8054239783748" cy="239.62882609480988" r="15.495925644491308" fill="rgb(237,237,237)"/></g></g></svg>