<svg width="1000" height="500" viewBox="0 0 1000 500" fill="none" xmlns="http://www.w3.org/2000/svg">
<g clip-path="url(#clip0)">
<path d="M304.023 126.973C311.999 126.973 318.265 128.112 322.822 130.391C327.38 132.507 330.798 135.436 333.076 139.18C335.518 142.923 337.064 147.318 337.715 152.363C338.366 157.246 338.691 162.455 338.691 167.988V312.52C338.691 318.216 338.366 323.506 337.715 328.389C337.064 333.272 335.599 337.585 333.32 341.328C331.042 344.909 327.624 347.757 323.066 349.873C318.509 351.989 312.324 353.047 304.512 353.047C296.862 353.047 290.758 352.07 286.201 350.117C281.644 348.001 278.145 345.234 275.703 341.817C273.262 338.399 271.634 334.33 270.82 329.609C270.169 324.889 269.844 319.844 269.844 314.473V271.016H186.348C176.257 271.016 167.956 270.202 161.445 268.574C154.935 266.947 149.727 264.831 145.82 262.227C142.077 259.46 139.391 256.286 137.764 252.705C136.299 249.124 135.566 245.462 135.566 241.719C135.566 239.766 135.729 237.813 136.055 235.859C136.543 233.906 137.031 231.953 137.52 230L186.836 58.6134C188.464 52.5913 190.01 46.7319 191.475 41.0353C193.102 35.3387 195.218 30.2931 197.822 25.8986C200.589 21.504 204.333 18.0047 209.053 15.4005C213.773 12.6336 220.202 11.2501 228.34 11.2501C234.199 11.2501 239.001 12.0639 242.744 13.6915C246.65 15.3191 249.743 17.5164 252.021 20.2833C254.3 22.8875 255.846 25.9799 256.66 29.5607C257.637 32.9786 258.125 36.6407 258.125 40.547C258.125 44.4532 257.799 48.4409 257.148 52.5099C256.497 56.4161 255.684 60.0782 254.707 63.4962C253.893 66.9142 252.998 70.0066 252.021 72.7736C251.208 75.3777 250.638 77.3309 250.312 78.6329C250.312 78.6329 249.824 80.4233 248.848 84.004C247.871 87.422 246.569 91.9793 244.941 97.6759C243.314 103.21 241.523 109.639 239.57 116.963C237.617 124.124 235.583 131.449 233.467 138.936C228.421 156.514 222.806 176.452 216.621 198.75L218.574 200.703H269.844V167.5C269.844 161.966 270.169 156.758 270.82 151.875C271.471 146.992 272.936 142.761 275.215 139.18C277.493 135.436 280.911 132.507 285.469 130.391C290.026 128.112 296.211 126.973 304.023 126.973Z" fill="#F67C2D"/>
<path d="M813.523 126.973C821.499 126.973 827.765 128.112 832.322 130.391C836.88 132.507 840.298 135.436 842.576 139.18C845.018 142.923 846.564 147.318 847.215 152.363C847.866 157.246 848.191 162.455 848.191 167.988V312.52C848.191 318.216 847.866 323.506 847.215 328.389C846.564 333.272 845.099 337.585 842.82 341.328C840.542 344.909 837.124 347.757 832.566 349.873C828.009 351.989 821.824 353.047 814.012 353.047C806.362 353.047 800.258 352.07 795.701 350.117C791.144 348.001 787.645 345.234 785.203 341.817C782.762 338.399 781.134 334.33 780.32 329.609C779.669 324.889 779.344 319.844 779.344 314.473V271.016H695.848C685.757 271.016 677.456 270.202 670.945 268.574C664.435 266.947 659.227 264.831 655.32 262.227C651.577 259.46 648.891 256.286 647.264 252.705C645.799 249.124 645.066 245.462 645.066 241.719C645.066 239.766 645.229 237.813 645.555 235.859C646.043 233.906 646.531 231.953 647.02 230L696.336 58.6134C697.964 52.5913 699.51 46.7319 700.975 41.0353C702.602 35.3387 704.718 30.2931 707.322 25.8986C710.089 21.504 713.833 18.0047 718.553 15.4005C723.273 12.6336 729.702 11.2501 737.84 11.2501C743.699 11.2501 748.501 12.0639 752.244 13.6915C756.15 15.3191 759.243 17.5164 761.521 20.2833C763.8 22.8875 765.346 25.9799 766.16 29.5607C767.137 32.9786 767.625 36.6407 767.625 40.547C767.625 44.4532 767.299 48.4409 766.648 52.5099C765.997 56.4161 765.184 60.0782 764.207 63.4962C763.393 66.9142 762.498 70.0066 761.521 72.7736C760.708 75.3777 760.138 77.3309 759.812 78.6329C759.812 78.6329 759.324 80.4233 758.348 84.004C757.371 87.422 756.069 91.9793 754.441 97.6759C752.814 103.21 751.023 109.639 749.07 116.963C747.117 124.124 745.083 131.449 742.967 138.936C737.921 156.514 732.306 176.452 726.121 198.75L728.074 200.703H779.344V167.5C779.344 161.966 779.669 156.758 780.32 151.875C780.971 146.992 782.436 142.761 784.715 139.18C786.993 135.436 790.411 132.507 794.969 130.391C799.526 128.112 805.711 126.973 813.523 126.973Z" fill="#F67C2D"/>
<path d="M500 384C567.103 384 621.5 329.603 621.5 262.5C621.5 195.397 567.103 141 500 141C432.897 141 378.5 195.397 378.5 262.5C378.5 329.603 432.897 384 500 384Z" fill="#F47C2D"/>
<path d="M500 33C517.937 33 532.5 47.563 532.5 65.5V150.5C532.5 168.437 517.937 183 500 183C482.063 183 467.5 168.437 467.5 150.5V65.5C467.5 47.563 482.063 33 500 33Z" fill="#EDB38F"/>
<path d="M500 109C503.311 109 506 111.689 506 115V135C506 138.311 503.311 141 500 141C496.689 141 494 138.311 494 135V115C494 111.689 496.689 109 500 109Z" fill="#DC816E"/>
<path d="M484.5 116C486.985 116 489 113.985 489 111.5C489 109.015 486.985 107 484.5 107C482.015 107 480 109.015 480 111.5C480 113.985 482.015 116 484.5 116Z" fill="black"/>
<path d="M515.5 116C517.985 116 520 113.985 520 111.5C520 109.015 517.985 107 515.5 107C513.015 107 511 109.015 511 111.5C511 113.985 513.015 116 515.5 116Z" fill="black"/>
<path d="M467.5 357.59C481.298 357.59 492.5 368.792 492.5 382.59V473.59C492.5 487.388 481.298 498.59 467.5 498.59C453.702 498.59 442.5 487.388 442.5 473.59V382.59C442.5 368.792 453.702 357.59 467.5 357.59Z" fill="#EDB38F"/>
<path d="M531 357.59C544.798 357.59 556 368.792 556 382.59V473.59C556 487.388 544.798 498.59 531 498.59C517.202 498.59 506 487.388 506 473.59V382.59C506 368.792 517.202 357.59 531 357.59Z" fill="#EDB38F"/>
<path d="M362.606 300.353C355.904 288.292 360.253 273.059 372.314 266.356L451.854 222.149C463.915 215.446 479.148 219.796 485.851 231.856C492.554 243.916 488.204 259.15 476.144 265.853L396.603 310.06C384.543 316.763 369.309 312.413 362.606 300.353Z" fill="#EDB38F"/>
<path d="M484.684 224.41L488.795 222.321C489.441 221.993 490.232 222.251 490.56 222.898C490.889 223.544 490.631 224.335 489.984 224.663L485.874 226.751C485.227 227.079 484.436 226.821 484.108 226.175C483.78 225.529 484.038 224.738 484.684 224.41Z" fill="#FFFF00"/>
<path d="M488.855 232.621L492.966 230.533C493.612 230.205 494.403 230.463 494.732 231.109C495.06 231.756 494.802 232.547 494.156 232.875L490.045 234.963C489.398 235.291 488.608 235.033 488.279 234.387C487.951 233.741 488.209 232.95 488.855 232.621Z" fill="#FFFF00"/>
<path d="M478.883 216.281L479.201 216.12C480.084 215.671 481.166 216.024 481.615 216.908L494.29 241.861C494.738 242.745 494.385 243.826 493.502 244.275L493.184 244.437C492.301 244.885 491.219 244.532 490.77 243.649L478.096 218.695C477.647 217.812 478 216.73 478.883 216.281Z" fill="black"/>
<path fill-rule="evenodd" clip-rule="evenodd" d="M479.349 218.258L476.417 219.748C469.618 223.201 466.902 231.524 470.355 238.323C473.808 245.121 482.131 247.837 488.93 244.384L491.863 242.894L479.349 218.258Z" fill="black"/>
<path d="M473.706 236C391.902 266.667 345 293 333 315C315 348 179 529 173 507" stroke="url(#paint0_linear)" stroke-width="3" stroke-miterlimit="3" stroke-linecap="square"/>
<path d="M601.416 310.052C589.36 316.763 574.123 312.422 567.413 300.366L523.157 220.853C516.446 208.797 520.786 193.561 532.842 186.85C544.899 180.14 560.135 184.48 566.845 196.536L611.102 276.049C617.812 288.106 613.472 303.342 601.416 310.052Z" fill="#EDB38F"/>
<path d="M517.568 191.77L517.386 191.464C516.879 190.612 517.159 189.509 518.011 189.003L542.063 174.692C542.915 174.185 544.017 174.465 544.524 175.317L544.706 175.623C545.213 176.474 544.933 177.577 544.081 178.084L520.029 192.395C519.177 192.902 518.075 192.622 517.568 191.77Z" fill="black"/>
<path fill-rule="evenodd" clip-rule="evenodd" d="M519.509 191.173L521.191 194C525.09 200.553 533.576 202.708 540.129 198.809C546.682 194.91 548.837 186.424 544.938 179.871L543.256 177.044L519.509 191.173Z" fill="black"/>
<path d="M540 199.009C604.667 379.003 655.667 469 693 469C730.333 469 763 481 791 505" stroke="url(#paint1_linear)" stroke-width="3" stroke-miterlimit="3" stroke-linecap="square"/>
</g>
<defs>
<linearGradient id="paint0_linear" x1="197.75" y1="491.5" x2="238.072" y2="436.166" gradientUnits="userSpaceOnUse">
<stop stop-color="#FF872E"/>
<stop offset="1"/>
</linearGradient>
<linearGradient id="paint1_linear" x1="768" y1="490" x2="700.043" y2="472.679" gradientUnits="userSpaceOnUse">
<stop stop-color="#FF872E" stop-opacity="0.98"/>
<stop offset="1"/>
</linearGradient>
<clipPath id="clip0">
<rect width="1000" height="500" fill="white"/>
</clipPath>
</defs>
</svg>
