<?xml version="1.0" encoding="UTF-8" standalone="no"?><!-- Generator: Gravit.io --><svg xmlns="http://www.w3.org/2000/svg" xmlns:xlink="http://www.w3.org/1999/xlink" style="isolation:isolate" viewBox="0 0 1920 1280" width="1920pt" height="1280pt"><defs><clipPath id="_clipPath_CvL8SbF7O0arq9WSyiOeRnQdx19jek67"><rect width="1920" height="1280"/></clipPath></defs><g clip-path="url(#_clipPath_CvL8SbF7O0arq9WSyiOeRnQdx19jek67)"><g style="isolation:isolate"><g><g><path d=" M -2 1467 L 615 1467 L 615 1336 L 28 1248 L -2 1467 Z " fill="rgb(38,9,9)"/><circle vector-effect="non-scaling-stroke" cx="0" cy="1353" r="114" fill="rgb(38,9,9)"/><circle vector-effect="non-scaling-stroke" cx="600" cy="1353" r="114" fill="rgb(38,9,9)"/><circle vector-effect="non-scaling-stroke" cx="45.50000000000091" cy="1227.5000000000007" r="78.49999999999989" fill="rgb(38,9,9)"/><circle vector-effect="non-scaling-stroke" cx="254.50000000000048" cy="1174.5000000000005" r="178.49999999999943" fill="rgb(38,9,9)"/><circle vector-effect="non-scaling-stroke" cx="458.531847133758" cy="1239" r="141.4681528662419" fill="rgb(38,9,9)"/></g></g><g><g><path d=" M 331 1383 L 948 1383 L 948 1252 L 361 1164 L 331 1383 Z " fill="rgb(235,235,235)"/><circle vector-effect="non-scaling-stroke" cx="333" cy="1269" r="114" fill="rgb(235,235,235)"/><circle vector-effect="non-scaling-stroke" cx="933" cy="1269" r="113.99999999999994" fill="rgb(235,235,235)"/><circle vector-effect="non-scaling-stroke" cx="378.5000000000009" cy="1143.5000000000007" r="78.49999999999989" fill="rgb(235,235,235)"/><circle vector-effect="non-scaling-stroke" cx="587.5000000000005" cy="1090.5000000000005" r="178.49999999999943" fill="rgb(235,235,235)"/><circle vector-effect="non-scaling-stroke" cx="791.531847133758" cy="1155" r="141.4681528662419" fill="rgb(235,235,235)"/></g></g><g><g><path d=" M 928 1571 L 1545 1571 L 1545 1440 L 958 1352 L 928 1571 Z " fill="rgb(235,235,235)"/><circle vector-effect="non-scaling-stroke" cx="930" cy="1456.9999999999995" r="113.99999999999994" fill="rgb(235,235,235)"/><circle vector-effect="non-scaling-stroke" cx="1530.0000000000002" cy="1456.9999999999995" r="114" fill="rgb(235,235,235)"/><circle vector-effect="non-scaling-stroke" cx="975.5000000000009" cy="1331.4999999999995" r="78.49999999999994" fill="rgb(235,235,235)"/><circle vector-effect="non-scaling-stroke" cx="1184.5000000000005" cy="1278.4999999999995" r="178.49999999999937" fill="rgb(235,235,235)"/><circle vector-effect="non-scaling-stroke" cx="1388.5318471337578" cy="1342.9999999999989" r="141.46815286624178" fill="rgb(235,235,235)"/></g></g><g><g><path d=" M 1342 1355 L 1959 1355 L 1959 1224 L 1372 1136 L 1342 1355 Z " fill="rgb(255,255,255)"/><circle vector-effect="non-scaling-stroke" cx="1344" cy="1240.9999999999995" r="114" fill="rgb(255,255,255)"/><circle vector-effect="non-scaling-stroke" cx="1944" cy="1240.9999999999995" r="113.99999999999989" fill="rgb(255,255,255)"/><circle vector-effect="non-scaling-stroke" cx="1389.500000000001" cy="1115.4999999999995" r="78.5" fill="rgb(255,255,255)"/><circle vector-effect="non-scaling-stroke" cx="1598.5000000000005" cy="1062.4999999999995" r="178.49999999999932" fill="rgb(255,255,255)"/><circle vector-effect="non-scaling-stroke" cx="1802.5318471337575" cy="1126.9999999999986" r="141.46815286624178" fill="rgb(255,255,255)"/></g></g></g></g></svg>