<?xml version="1.0" encoding="UTF-8" standalone="no"?><!-- Generator: Gravit.io --><svg xmlns="http://www.w3.org/2000/svg" xmlns:xlink="http://www.w3.org/1999/xlink" style="isolation:isolate" viewBox="0 0 1920 1280" width="1920pt" height="1280pt"><defs><clipPath id="_clipPath_Dt8binaFiPJ5ryJCSH02DumZpsOxocos"><rect width="1920" height="1280"/></clipPath></defs><g clip-path="url(#_clipPath_Dt8binaFiPJ5ryJCSH02DumZpsOxocos)"><g style="isolation:isolate"><path d=" M 1045 749.533 Q 1264.009 815.683 1359.855 648" fill="none" vector-effect="non-scaling-stroke" stroke-width="3" stroke="rgb(255,255,255)" stroke-linejoin="miter" stroke-linecap="square" stroke-miterlimit="3"/><g><g><path d=" M 808.056 603.548 C 813.439 593.914 825.631 590.464 835.264 595.847 C 844.898 601.231 848.348 613.422 842.965 623.056 C 837.582 632.689 825.39 636.14 815.757 630.757 C 806.123 625.373 802.672 613.181 808.056 603.548 Z " fill="rgb(235,235,235)"/><path d=" M 746.541 713.629 C 751.924 703.995 764.116 700.545 773.75 705.928 C 783.383 711.311 786.834 723.503 781.45 733.137 C 776.067 742.77 763.875 746.221 754.242 740.837 C 744.608 735.454 741.158 723.262 746.541 713.629 Z " fill="rgb(185,185,185)"/><rect x="774.758" y="605.291" width="39.99" height="126.102" transform="matrix(0.873,0.488,-0.488,0.873,427.004,-302.778)" fill="rgb(235,235,235)"/></g><g><path d=" M 1054.265 675.735 C 1054.283 664.7 1063.257 655.755 1074.293 655.773 C 1085.328 655.791 1094.273 664.765 1094.256 675.8 C 1094.238 686.836 1085.264 695.781 1074.228 695.763 C 1063.192 695.745 1054.247 686.771 1054.265 675.735 Z " fill="rgb(235,235,235)"/><path d=" M 1054.061 801.838 C 1054.079 790.802 1063.053 781.857 1074.089 781.875 C 1085.124 781.893 1094.069 790.867 1094.051 801.903 C 1094.033 812.938 1085.059 821.883 1074.024 821.865 C 1062.988 821.847 1054.043 812.873 1054.061 801.838 Z " fill="rgb(185,185,185)"/><rect x="1054.163" y="675.768" width="39.99" height="126.102" transform="matrix(1,0.002,-0.002,1,1.198,-1.739)" fill="rgb(235,235,235)"/></g><g><path d=" M 845.715 729.217 C 848.588 718.562 859.572 712.244 870.227 715.118 C 880.882 717.991 887.199 728.975 884.326 739.63 C 881.452 750.285 870.469 756.602 859.814 753.729 C 849.159 750.855 842.841 739.872 845.715 729.217 Z " fill="rgb(235,235,235)"/><path d=" M 812.88 850.969 C 815.753 840.314 826.737 833.997 837.392 836.87 C 848.047 839.744 854.364 850.727 851.491 861.382 C 848.617 872.037 837.634 878.355 826.979 875.481 C 816.324 872.608 810.006 861.624 812.88 850.969 Z " fill="rgb(185,185,185)"/><rect x="828.608" y="732.248" width="39.99" height="126.102" transform="matrix(0.966,0.26,-0.26,0.966,236.355,-193.528)" fill="rgb(235,235,235)"/></g><g><path d=" M 947.971 756.794 C 950.845 746.139 961.828 739.822 972.483 742.695 C 983.138 745.569 989.456 756.552 986.582 767.207 C 983.709 777.862 972.725 784.179 962.07 781.306 C 951.416 778.432 945.098 767.449 947.971 756.794 Z " fill="rgb(235,235,235)"/><path d=" M 915.136 878.547 C 918.01 867.892 928.993 861.574 939.648 864.448 C 950.303 867.321 956.621 878.305 953.747 888.959 C 950.874 899.614 939.89 905.932 929.235 903.058 C 918.581 900.185 912.263 889.202 915.136 878.547 Z " fill="rgb(185,185,185)"/><rect x="930.864" y="759.825" width="39.99" height="126.102" transform="matrix(0.966,0.26,-0.26,0.966,247.063,-219.203)" fill="rgb(235,235,235)"/></g><g><path d="M 806.921 664.043 L 814.498 635.945 C 831.151 574.198 894.801 537.587 956.549 554.239 L 984.647 561.817 C 1046.394 578.469 1083.005 642.12 1066.353 703.867 L 1058.775 731.965 C 1042.123 793.712 978.472 830.324 916.725 813.671 L 888.627 806.093 C 826.88 789.441 790.268 725.791 806.921 664.043 Z" style="stroke:none;fill:#EBEBEB;stroke-miterlimit:10;"/><rect x="818.595" y="583.608" width="260.852" height="108.852" transform="matrix(0.966,0.26,-0.26,0.966,198.87,-225.101)" fill="rgb(235,235,235)"/><rect x="849.251" y="615.748" width="111.794" height="68.645" transform="matrix(0.966,0.26,-0.26,0.966,200.491,-213.261)" fill="rgb(206,206,206)"/><path d=" M 864.477 623.867 C 865.957 618.38 871.613 615.127 877.1 616.607 C 882.587 618.087 885.84 623.743 884.36 629.23 C 882.881 634.716 877.225 637.97 871.738 636.49 C 866.251 635.01 862.997 629.354 864.477 623.867 Z " fill="rgb(255,0,0)"/><path d=" M 856.944 651.799 C 858.424 646.312 864.08 643.058 869.567 644.538 C 875.054 646.018 878.307 651.674 876.828 657.161 C 875.348 662.648 869.692 665.901 864.205 664.421 C 858.718 662.942 855.465 657.285 856.944 651.799 Z " fill="rgb(0,255,0)"/><path d=" M 925.935 670.912 C 927.414 665.425 933.071 662.172 938.557 663.652 C 944.044 665.131 947.298 670.787 945.818 676.274 C 944.338 681.761 938.682 685.015 933.195 683.535 C 927.708 682.055 924.455 676.399 925.935 670.912 Z " fill="rgb(255,255,0)"/><path d=" M 933.595 642.507 C 935.075 637.021 940.731 633.767 946.218 635.247 C 951.705 636.727 954.958 642.383 953.478 647.87 C 951.999 653.357 946.342 656.61 940.856 655.13 C 935.369 653.65 932.115 647.994 933.595 642.507 Z " fill="rgb(0,255,0)"/><path d=" M 899.036 633.187 C 900.516 627.7 906.172 624.447 911.659 625.927 C 917.146 627.407 920.399 633.063 918.919 638.55 C 917.44 644.037 911.784 647.29 906.297 645.81 C 900.81 644.33 897.556 638.674 899.036 633.187 Z " fill="rgb(255,153,0)"/><path d=" M 891.503 661.119 C 892.983 655.632 898.639 652.378 904.126 653.858 C 909.613 655.338 912.866 660.994 911.387 666.481 C 909.907 671.968 904.251 675.221 898.764 673.741 C 893.277 672.262 890.024 666.606 891.503 661.119 Z " fill="rgb(0,255,255)"/><path d=" M 1009.511 669.837 C 1011.308 663.174 1018.494 659.309 1025.549 661.212 C 1032.603 663.114 1036.872 670.068 1035.075 676.731 C 1033.278 683.394 1026.092 687.258 1019.037 685.356 C 1011.983 683.453 1007.714 676.499 1009.511 669.837 Z " fill="rgb(0,0,255)"/><path d=" M 1004.399 679.377 Q 1013.694 672.873 1019.426 670.733 Q 1026.038 668.265 1039.112 667.409 Q 1027.771 674.57 1020.862 676.707 Q 1015.245 678.444 1004.399 679.377 Z  M 1009.969 677.553 Q 1016.265 673.148 1020.149 671.698 Q 1024.628 670.026 1033.485 669.446 Q 1025.802 674.297 1021.121 675.745 Q 1017.317 676.922 1009.969 677.553 Z " fill-rule="evenodd" fill="rgb(255,0,0)"/></g><g><path d=" M 837.005 552.49 C 855.749 482.989 927.392 441.781 996.893 460.524 C 1066.394 479.268 1107.603 550.911 1088.859 620.412 L 837.005 552.49 Z " fill-rule="evenodd" fill="rgb(235,235,235)"/><path d=" M 873.931 562.449 C 887.178 513.328 937.814 484.203 986.935 497.45 C 1036.056 510.697 1065.181 561.333 1051.933 610.454 L 873.931 562.449 Z " fill-rule="evenodd" fill="rgb(38,38,38)"/><path d=" M 911.824 517.451 C 926.635 506.345 941.692 502.415 955.205 501.657" fill="none" vector-effect="non-scaling-stroke" stroke-width="5" stroke="rgb(255,255,255)" stroke-linejoin="miter" stroke-linecap="square" stroke-miterlimit="3"/><rect x="907.191" y="518.989" width="2.452" height="2.452" transform="matrix(0.614,0.789,-0.789,0.614,760.753,-516.144)" fill="rgb(255,255,255)"/></g></g><g><rect x="1382.795" y="566.995" width="83.859" height="151.2" transform="matrix(0.495,-0.869,0.869,0.495,161.062,1562.337)" fill="rgb(215,215,215)"/><path d="M 1318.591 602.368 L 1336.01 571.797 C 1342.66 560.127 1357.533 556.051 1369.204 562.7 L 1381.835 569.898 C 1393.506 576.548 1397.582 591.421 1390.932 603.091 L 1373.512 633.663 C 1366.863 645.333 1351.989 649.409 1340.319 642.759 L 1327.687 635.561 C 1316.017 628.912 1311.941 614.038 1318.591 602.368 Z" style="stroke:none;fill:#D7D7D7;stroke-miterlimit:10;"/><path d=" M 1503.17 708.315 L 1469.651 716.453 L 1511.168 643.592 L 1521.255 676.576 L 1503.17 708.315" fill="rgb(185,185,185)"/><path d=" M 1525.671 679.093 L 1554 680.062 L 1522.863 734.708 L 1507.586 710.831 L 1525.671 679.093" fill="rgb(209,209,209)"/><rect x="1496.156" y="691.163" width="36.529" height="5.082" transform="matrix(0.495,-0.869,0.869,0.495,161.946,1666.076)" fill="rgb(255,0,0)"/><rect x="1311.792" y="697.333" width="117.212" height="60.035" transform="matrix(0.495,-0.869,0.869,0.495,59.992,1557.931)" fill="rgb(0,0,62)"/><rect x="1411.337" y="522.632" width="117.212" height="60.035" transform="matrix(0.495,-0.869,0.869,0.495,262.043,1556.209)" fill="rgb(0,0,62)"/><line x1="1333.313" y1="638.767" x2="1374.83" y2="565.906" vector-effect="non-scaling-stroke" stroke-width="5" stroke="rgb(255,0,0)" stroke-linejoin="miter" stroke-linecap="square" stroke-miterlimit="3"/><line x1="1366.654" y1="645.7" x2="1397.288" y2="663.155" vector-effect="non-scaling-stroke" stroke-width="5" stroke="rgb(70,70,70)" stroke-linejoin="miter" stroke-linecap="square" stroke-miterlimit="3"/></g></g></g></svg>